<svg data-v-0dd9719b="" version="1.0" xmlns="http://www.w3.org/2000/svg" xmlns:xlink="http://www.w3.org/1999/xlink" width="100%" height="100%" viewBox="0 0 340.000000 250.000000" preserveAspectRatio="xMidYMid meet" color-interpolation-filters="sRGB" style="margin: auto;"> <rect data-v-0dd9719b="" x="0" y="0" width="100%" height="100%" fill="#ffffff" fill-opacity="1" class="background"></rect> <rect data-v-0dd9719b="" x="0" y="0" width="100%" height="100%" fill="url(#watermark)" fill-opacity="1" class="watermarklayer"></rect> <g data-v-0dd9719b="" class="iconmbgsvg" transform="translate(53.1875,77.36636734008789)"><g fill="#333" hollow-target="text"><g mask="url(#3bec196a-829d-467a-ae87-509cc05d2439)"><g><rect fill="#333" fill-opacity="0" stroke-width="2" x="0" y="0" width="140" height="95.26725868463134" class="image-rect"></rect> <svg x="0" y="0" width="140" height="95.26725868463134" filtersec="colorsb1399275179" class="image-svg-svg primary" style="overflow: visible;"><svg xmlns="http://www.w3.org/2000/svg" viewBox="0 0 391.3699951171875 266.32000732421875"><title>资源 1</title><path fill="#ecd800" d="M135 193.1l-47.94 21.32 16.1-49.55-42.14-30.62h52.09l16.1-49.55 16.1 49.55 246.06-20.81-231.65.98-30.51-93.87-30.5 93.87H0l79.86 58.02-30.51 93.88L135 193.1"></path><path d="M192.61 87l-.82-4.44L191 87a4.11 4.11 0 0 1-3.29 3.29l-4.44.82 4.44.83a4.11 4.11 0 0 1 3.29 3.24l.83 4.44.82-4.44a4.12 4.12 0 0 1 3.29-3.29l4.44-.83-4.44-.82a4.12 4.12 0 0 1-3.33-3.24zM186.43 55.11l1.67-9a8.31 8.31 0 0 1 6.64-6.64l9-1.67-9-1.67a8.31 8.31 0 0 1-6.64-6.65l-1.67-9-1.68 9a8.29 8.29 0 0 1-6.64 6.65l-9 1.67 9 1.67a8.29 8.29 0 0 1 6.64 6.64zM95.5 9l-1.67-9-1.67 9a8.31 8.31 0 0 1-6.65 6.64l-9 1.67 9 1.67a8.31 8.31 0 0 1 6.65 6.65l1.67 9 1.67-9a8.31 8.31 0 0 1 6.64-6.63l9-1.67-9-1.67A8.31 8.31 0 0 1 95.5 9zM46.36 74.34l-1.67-9-1.67 9A8.31 8.31 0 0 1 36.37 81l-9 1.67 9 1.67A8.31 8.31 0 0 1 43 91l1.67 9 1.67-9A8.31 8.31 0 0 1 53 84.33l9-1.67L53 81a8.31 8.31 0 0 1-6.64-6.66z" fill="#f8b62d"></path></svg></svg> <!----></g></g> <g transform="translate(46.375,51.8095703125)"><g data-gra="path-name" fill-rule="" class="tp-name" transform="translate(0,0)"><g transform="scale(1)"><g><path d="M4.02-27.59L15.74-27.59 11.93-0.49 1.19-0.49 4.88-26.61 4.02-27.59ZM15.99-13.57L35.42-13.57 33.58-0.33 14.15-0.33 15.99-13.57ZM36.53-15.13L29.11-15.13 28.82-16.97 22.3-16.97 21.48-15.17 14.68-15.17 20.79-28 19.8-29.11 34.11-29.11 36.53-15.13ZM21.28-4.43L27.59-4.43 28.29-9.47 21.98-9.47 21.28-4.43ZM6.31-3.98L7.79-3.98 10.62-24.11 9.14-24.11 6.31-3.98ZM26.08-24.93L24.07-20.71 28.25-20.71 27.63-24.93 26.08-24.93ZM40.06-17.59L45.84-28.09 44.98-29.07 53.83-29.07 52.19-25.95 75.4-25.95 71.5-17.51 64.82-17.51 67.16-22.06 50.1-22.06 47.77-17.59 40.06-17.59ZM61.34-19.93L58.92-2.54Q58.75-1.35 57.83-0.68 56.91 0 55.72 0L55.72 0 47.6 0 51.29-3.9 53.5-19.93 61.34-19.93ZM63.43-15.33L70.11-15.33 72.12-1.93 65.07-1.93 63.43-15.33ZM43.58-15.33L50.18-15.33 44.77-1.93 37.76-1.93 43.58-15.33ZM85.65-9.8L88.19-9.8 89.75-20.87 110.29-21.94 109.84-18.66 96.14-17.84 95.9-16.07 110.74-16.07 110.25-12.67 107.26-12.67 106.85-9.8 110.86-9.8 110.37-6.27 85.16-6.27 85.65-9.8ZM105.53-29.11L105.25-27.1 113.32-27.1 112.67-22.55 106.48-22.55 106.68-23.9 94.67-23.9 94.34-21.61 88.15-21.61 88.93-27.1 97.74-27.1 97.83-27.63 96.06-29.11 105.53-29.11ZM81.51 0.29L75.32 0.29 78.92-11.23 85.16-11.23 81.51 0.29ZM85.65-12.79L79.38-12.79 79.01-19.8 85.24-19.8 85.65-12.79ZM86.84-21.36L80.56-21.36 80.2-28.37 86.43-28.37 86.84-21.36ZM96.47-5.21L92.45 0.29 85.03 0.29 88.85-5.21 96.47-5.21ZM101.97 0.29L100.04-5.21 107.54-5.21 109.51 0.29 101.97 0.29ZM95.41-12.67L95-9.8 100.33-9.8 100.74-12.67 95.41-12.67ZM116.81-7.75L119.47-26.69 118.16-28.33 149.94-28.33 147.03-7.71 142.56-7.71 139.69-10.82 141.61-24.44 126.94-24.44 125.01-10.91 121.28-7.75 116.81-7.75ZM129.85-22.14L138.05-22.14 136.37-10.37 146.82 0.33 136.61 0.33 131.16-5.37 124.31 0.33 114.1 0.33 128.33-11.36 129.85-22.14ZM155.23-25.38L158.47-25.38 158.79-27.51 157.44-29.07 164.45-29.07 163.92-25.38 166.5-25.38 166.05-22.26 163.47-22.26 163.06-19.31 166.38-19.31 165.93-16.07 163.59-16.07 163.26-13.74 165.6-13.74 165.15-10.5 162.81-10.5 161.95-4.26 185.81-4.26 185.28-0.33 161.01-0.33 155.47-3.57 154.86-0.33 151-0.33 153.63-12.92 152.89-13.9 157.48-13.9 156.37-8.12 157.36-7.58 158.55-16.07 153.26-16.07 153.71-19.31 157.64-19.31 158.06-22.26 154.78-22.26 155.23-25.38ZM177.24-11.93L176.79-8.9 175.97-8.73 175.44-5.04 171.22-5.04 171.63-8.04 164.62-6.89 165.07-9.96 165.89-10.09 168.02-25.3 167.2-25.3 167.65-28.37 179.58-28.37 179.13-25.3 178.27-25.3 176.38-11.77 177.24-11.93ZM182.57-23.21L182.33-21.28 182.78-18.08 184.05-21.32 184.46-24.31 179.66-24.31 180.11-27.59 188.44-27.59 187.53-21.07 184.42-14.35 185.94-5.08 182.12-5.08 181.59-10 179.33-5.08 175.73-5.08 180.19-14.56 179.05-21.28 179.29-23.21 182.57-23.21ZM170.56-13.82L170.15-10.78 172.08-11.07 172.45-13.82 170.56-13.82ZM172.16-25.3L171.79-22.63 173.68-22.63 174.04-25.3 172.16-25.3ZM171.38-19.56L171.01-16.89 172.9-16.89 173.27-19.56 171.38-19.56Z" transform="translate(-1.190000057220459, 29.110000610351562)"></path></g> <!----> <!----> <!----> <!----> <!----> <!----> <!----></g></g> <g data-gra="path-slogan" fill-rule="" class="tp-slogan" fill="#333" transform="translate(5,34.44000053405762)"><rect x="0" height="1" y="3.6050000190734863" width="61.43362617492676"></rect> <rect height="1" y="3.6050000190734863" width="65.43362617492676" x="111.81637382507324"></rect> <g transform="translate(64.43362617492676,0)"><g transform="scale(1)"><path d="M6.57-5.59L6.57-5.59L5.59-5.59Q5.50-7.09 3.61-7.18L3.61-7.18Q1.85-7.13 1.85-5.80L1.85-5.80Q1.85-4.94 2.79-4.81L2.79-4.81L5.03-4.30Q6.79-3.87 6.79-2.15L6.79-2.15Q6.75 0.04 3.70 0.13L3.70 0.13Q2.02 0.13 1.33-0.56L1.33-0.56Q0.47-1.20 0.52-2.54L0.52-2.54L1.55-2.54Q1.59-0.73 3.70-0.69L3.70-0.69Q5.76-0.73 5.80-2.02L5.80-2.02Q5.97-3.09 4.08-3.44L4.08-3.44L2.45-3.78Q0.77-4.25 0.77-5.67L0.77-5.67Q0.90-7.99 3.52-8.08L3.52-8.08Q6.49-8.08 6.57-5.59ZM8.12-7.86L9.20-7.86L9.20-0.95L13.19-0.95L13.19 0L8.12 0L8.12-7.86ZM20.45-3.91L20.45-3.91Q20.28-7.00 17.70-7.18L17.70-7.18Q15.08-7.05 14.95-3.91L14.95-3.91Q15.08-0.86 17.70-0.73L17.70-0.73Q20.28-0.90 20.45-3.91ZM21.53-3.91L21.53-3.91Q21.27 0 17.70 0.13L17.70 0.13Q14.09 0 13.84-3.91L13.84-3.91Q14.05-7.99 17.70-8.08L17.70-8.08Q21.27-7.95 21.53-3.91ZM28.66-3.31L26.25-3.31L26.25-4.21L29.69-4.21L29.69 0L29.00 0L28.75-0.99Q27.84 0.09 26.17 0.13L26.17 0.13Q24.58 0.13 23.72-0.69L23.72-0.69Q22.43-1.89 22.47-4.00L22.47-4.00Q22.77-7.91 26.21-8.08L26.21-8.08Q29.13-7.91 29.56-5.50L29.56-5.50L28.53-5.50Q28.10-7.13 26.17-7.18L26.17-7.18Q23.72-7.00 23.59-3.95L23.59-3.95Q23.59-0.69 26.21-0.69L26.21-0.69Q27.16-0.69 27.84-1.20L27.84-1.20Q28.70-1.89 28.66-3.31L28.66-3.31ZM36.52 0L35.75-2.28L32.57-2.28L31.75 0L30.68 0L33.64-7.86L34.85-7.86L37.68 0L36.52 0ZM34.16-6.70L32.91-3.22L35.36-3.22L34.20-6.70L34.16-6.70ZM39.92-7.86L43.87-1.50L43.87-7.86L44.90-7.86L44.90 0L43.70 0L39.70-6.36L39.66-6.36L39.66 0L38.63 0L38.63-7.86L39.92-7.86Z" transform="translate(-0.515625, 8.078125)"></path></g></g></g></g></g></g><mask id="3bec196a-829d-467a-ae87-509cc05d2439"><g fill="white"><g><rect fill-opacity="1" stroke-width="2" x="0" y="0" width="140" height="95.26725868463134" class="image-rect"></rect> <svg x="0" y="0" width="140" height="95.26725868463134" filtersec="colorsb1399275179" class="image-svg-svg primary" style="overflow: visible;"><svg xmlns="http://www.w3.org/2000/svg" viewBox="0 0 391.3699951171875 266.32000732421875"><title>资源 1</title><path d="M135 193.1l-47.94 21.32 16.1-49.55-42.14-30.62h52.09l16.1-49.55 16.1 49.55 246.06-20.81-231.65.98-30.51-93.87-30.5 93.87H0l79.86 58.02-30.51 93.88L135 193.1"></path><path d="M192.61 87l-.82-4.44L191 87a4.11 4.11 0 0 1-3.29 3.29l-4.44.82 4.44.83a4.11 4.11 0 0 1 3.29 3.24l.83 4.44.82-4.44a4.12 4.12 0 0 1 3.29-3.29l4.44-.83-4.44-.82a4.12 4.12 0 0 1-3.33-3.24zM186.43 55.11l1.67-9a8.31 8.31 0 0 1 6.64-6.64l9-1.67-9-1.67a8.31 8.31 0 0 1-6.64-6.65l-1.67-9-1.68 9a8.29 8.29 0 0 1-6.64 6.65l-9 1.67 9 1.67a8.29 8.29 0 0 1 6.64 6.64zM95.5 9l-1.67-9-1.67 9a8.31 8.31 0 0 1-6.65 6.64l-9 1.67 9 1.67a8.31 8.31 0 0 1 6.65 6.65l1.67 9 1.67-9a8.31 8.31 0 0 1 6.64-6.63l9-1.67-9-1.67A8.31 8.31 0 0 1 95.5 9zM46.36 74.34l-1.67-9-1.67 9A8.31 8.31 0 0 1 36.37 81l-9 1.67 9 1.67A8.31 8.31 0 0 1 43 91l1.67 9 1.67-9A8.31 8.31 0 0 1 53 84.33l9-1.67L53 81a8.31 8.31 0 0 1-6.64-6.66z"></path></svg></svg> </g></g> <g transform="translate(46.375,51.8095703125)" fill="black" stroke="black" stroke-width="6" stroke-linejoin="round"><g data-gra="path-name" fill-rule="" class="tp-name" transform="translate(0,0)"><g transform="scale(1)"><g><path d="M4.02-27.59L15.74-27.59 11.93-0.49 1.19-0.49 4.88-26.61 4.02-27.59ZM15.99-13.57L35.42-13.57 33.58-0.33 14.15-0.33 15.99-13.57ZM36.53-15.13L29.11-15.13 28.82-16.97 22.3-16.97 21.48-15.17 14.68-15.17 20.79-28 19.8-29.11 34.11-29.11 36.53-15.13ZM21.28-4.43L27.59-4.43 28.29-9.47 21.98-9.47 21.28-4.43ZM6.31-3.98L7.79-3.98 10.62-24.11 9.14-24.11 6.31-3.98ZM26.08-24.93L24.07-20.71 28.25-20.71 27.63-24.93 26.08-24.93ZM40.06-17.59L45.84-28.09 44.98-29.07 53.83-29.07 52.19-25.95 75.4-25.95 71.5-17.51 64.82-17.51 67.16-22.06 50.1-22.06 47.77-17.59 40.06-17.59ZM61.34-19.93L58.92-2.54Q58.75-1.35 57.83-0.68 56.91 0 55.72 0L55.72 0 47.6 0 51.29-3.9 53.5-19.93 61.34-19.93ZM63.43-15.33L70.11-15.33 72.12-1.93 65.07-1.93 63.43-15.33ZM43.58-15.33L50.18-15.33 44.77-1.93 37.76-1.93 43.58-15.33ZM85.65-9.8L88.19-9.8 89.75-20.87 110.29-21.94 109.84-18.66 96.14-17.84 95.9-16.07 110.74-16.07 110.25-12.67 107.26-12.67 106.85-9.8 110.86-9.8 110.37-6.27 85.16-6.27 85.65-9.8ZM105.53-29.11L105.25-27.1 113.32-27.1 112.67-22.55 106.48-22.55 106.68-23.9 94.67-23.9 94.34-21.61 88.15-21.61 88.93-27.1 97.74-27.1 97.83-27.63 96.06-29.11 105.53-29.11ZM81.51 0.29L75.32 0.29 78.92-11.23 85.16-11.23 81.51 0.29ZM85.65-12.79L79.38-12.79 79.01-19.8 85.24-19.8 85.65-12.79ZM86.84-21.36L80.56-21.36 80.2-28.37 86.43-28.37 86.84-21.36ZM96.47-5.21L92.45 0.29 85.03 0.29 88.85-5.21 96.47-5.21ZM101.97 0.29L100.04-5.21 107.54-5.21 109.51 0.29 101.97 0.29ZM95.41-12.67L95-9.8 100.33-9.8 100.74-12.67 95.41-12.67ZM116.81-7.75L119.47-26.69 118.16-28.33 149.94-28.33 147.03-7.71 142.56-7.71 139.69-10.82 141.61-24.44 126.94-24.44 125.01-10.91 121.28-7.75 116.81-7.75ZM129.85-22.14L138.05-22.14 136.37-10.37 146.82 0.33 136.61 0.33 131.16-5.37 124.31 0.33 114.1 0.33 128.33-11.36 129.85-22.14ZM155.23-25.38L158.47-25.38 158.79-27.51 157.44-29.07 164.45-29.07 163.92-25.38 166.5-25.38 166.05-22.26 163.47-22.26 163.06-19.31 166.38-19.31 165.93-16.07 163.59-16.07 163.26-13.74 165.6-13.74 165.15-10.5 162.81-10.5 161.95-4.26 185.81-4.26 185.28-0.33 161.01-0.33 155.47-3.57 154.86-0.33 151-0.33 153.63-12.92 152.89-13.9 157.48-13.9 156.37-8.12 157.36-7.58 158.55-16.07 153.26-16.07 153.71-19.31 157.64-19.31 158.06-22.26 154.78-22.26 155.23-25.38ZM177.24-11.93L176.79-8.9 175.97-8.73 175.44-5.04 171.22-5.04 171.63-8.04 164.62-6.89 165.07-9.96 165.89-10.09 168.02-25.3 167.2-25.3 167.65-28.37 179.58-28.37 179.13-25.3 178.27-25.3 176.38-11.77 177.24-11.93ZM182.57-23.21L182.33-21.28 182.78-18.08 184.05-21.32 184.46-24.31 179.66-24.31 180.11-27.59 188.44-27.59 187.53-21.07 184.42-14.35 185.94-5.08 182.12-5.08 181.59-10 179.33-5.08 175.73-5.08 180.19-14.56 179.05-21.28 179.29-23.21 182.57-23.21ZM170.56-13.82L170.15-10.78 172.08-11.07 172.45-13.82 170.56-13.82ZM172.16-25.3L171.79-22.63 173.68-22.63 174.04-25.3 172.16-25.3ZM171.38-19.56L171.01-16.89 172.9-16.89 173.27-19.56 171.38-19.56Z" transform="translate(-1.190000057220459, 29.110000610351562)"></path></g>       </g></g> <g data-gra="path-slogan" fill-rule="" class="tp-slogan" transform="translate(5,34.44000053405762)" fill="white"><rect x="0" height="1" y="3.6050000190734863" width="61.43362617492676"></rect> <rect height="1" y="3.6050000190734863" width="65.43362617492676" x="111.81637382507324"></rect> <g transform="translate(64.43362617492676,0)"><g transform="scale(1)"><path d="M6.57-5.59L6.57-5.59L5.59-5.59Q5.50-7.09 3.61-7.18L3.61-7.18Q1.85-7.13 1.85-5.80L1.85-5.80Q1.85-4.94 2.79-4.81L2.79-4.81L5.03-4.30Q6.79-3.87 6.79-2.15L6.79-2.15Q6.75 0.04 3.70 0.13L3.70 0.13Q2.02 0.13 1.33-0.56L1.33-0.56Q0.47-1.20 0.52-2.54L0.52-2.54L1.55-2.54Q1.59-0.73 3.70-0.69L3.70-0.69Q5.76-0.73 5.80-2.02L5.80-2.02Q5.97-3.09 4.08-3.44L4.08-3.44L2.45-3.78Q0.77-4.25 0.77-5.67L0.77-5.67Q0.90-7.99 3.52-8.08L3.52-8.08Q6.49-8.08 6.57-5.59ZM8.12-7.86L9.20-7.86L9.20-0.95L13.19-0.95L13.19 0L8.12 0L8.12-7.86ZM20.45-3.91L20.45-3.91Q20.28-7.00 17.70-7.18L17.70-7.18Q15.08-7.05 14.95-3.91L14.95-3.91Q15.08-0.86 17.70-0.73L17.70-0.73Q20.28-0.90 20.45-3.91ZM21.53-3.91L21.53-3.91Q21.27 0 17.70 0.13L17.70 0.13Q14.09 0 13.84-3.91L13.84-3.91Q14.05-7.99 17.70-8.08L17.70-8.08Q21.27-7.95 21.53-3.91ZM28.66-3.31L26.25-3.31L26.25-4.21L29.69-4.21L29.69 0L29.00 0L28.75-0.99Q27.84 0.09 26.17 0.13L26.17 0.13Q24.58 0.13 23.72-0.69L23.72-0.69Q22.43-1.89 22.47-4.00L22.47-4.00Q22.77-7.91 26.21-8.08L26.21-8.08Q29.13-7.91 29.56-5.50L29.56-5.50L28.53-5.50Q28.10-7.13 26.17-7.18L26.17-7.18Q23.72-7.00 23.59-3.95L23.59-3.95Q23.59-0.69 26.21-0.69L26.21-0.69Q27.16-0.69 27.84-1.20L27.84-1.20Q28.70-1.89 28.66-3.31L28.66-3.31ZM36.52 0L35.75-2.28L32.57-2.28L31.75 0L30.68 0L33.64-7.86L34.85-7.86L37.68 0L36.52 0ZM34.16-6.70L32.91-3.22L35.36-3.22L34.20-6.70L34.16-6.70ZM39.92-7.86L43.87-1.50L43.87-7.86L44.90-7.86L44.90 0L43.70 0L39.70-6.36L39.66-6.36L39.66 0L38.63 0L38.63-7.86L39.92-7.86Z" transform="translate(-0.515625, 8.078125)"></path></g></g></g></g></mask><defs v-gra="od"></defs></svg>